<svg xmlns="http://www.w3.org/2000/svg" style="display: none;"><symbol id="001-html5" viewBox="0 0 299.215 299.215"><title>001-html5</title><path id="XMLID_107_" d="M22.347,0c-2.75,0-4.799,2.241-4.555,4.98l23.184,260.047c0.244,2.739,2.611,5.582,5.262,6.318 l98.381,27.316c2.65,0.736,6.986,0.736,9.637,0.002l98.68-27.361c2.65-0.735,5.02-3.578,5.264-6.316L281.422,4.98 c0.246-2.739-1.805-4.98-4.555-4.98H22.347z M232.049,59.641c-0.219,2.443-0.598,6.684-0.842,9.423l-0.611,6.823 c-0.246,2.738-0.596,6.654-0.781,8.701c-0.184,2.048-0.359,3.723-0.391,3.723c-0.031,0-2.307,0-5.057,0h-69.76 c-2.75,0-5.023,0-5.053,0s-2.305,0-5.055,0h-36.74c-2.75,0-4.799,2.241-4.555,4.98l2.143,23.955c0.244,2.738,2.695,4.98,5.445,4.98 H144.5c2.75,0,5.025,0,5.055,0s2.303,0,5.053,0h57.939c2.75,0,7.006,0,9.457,0c2.449,0,4.273,1.999,4.051,4.442 c-0.223,2.443-0.604,6.685-0.848,9.423l-6.891,77.228c-0.246,2.739-0.557,6.238-0.691,7.776c-0.137,1.537-2.416,3.396-5.066,4.131 l-58.133,16.119c-2.65,0.734-4.852,1.342-4.893,1.351c-0.041,0.009-2.242-0.586-4.893-1.321l-58.195-16.148 c-2.65-0.735-5.018-3.578-5.262-6.317l-3.746-42.045c-0.244-2.739,1.807-4.98,4.557-4.98h5.311c2.75,0,7.25,0,10,0h7.92 c2.75,0,5.199,2.241,5.445,4.98l1.469,16.459c0.244,2.739,2.615,5.566,5.271,6.283l27.221,7.351 c2.654,0.717,4.836,1.304,4.848,1.304s2.193-0.588,4.848-1.305l27.27-7.369c2.654-0.717,5.027-3.545,5.273-6.283l2.957-32.976 c0.246-2.739-1.803-4.98-4.553-4.98h-30.666c-2.75,0-5.023,0-5.053,0s-2.305,0-5.055,0H80.511c-2.75,0-5.199-2.242-5.443-4.98 l-7.256-81.306c-0.244-2.739-0.623-6.979-0.842-9.423c-0.217-2.443,1.854-4.442,4.604-4.442H144.5c2.75,0,5.025,0,5.055,0 s2.303,0,5.053,0h72.838C230.195,55.198,232.267,57.197,232.049,59.641z"/></symbol><symbol id="002-cut" viewBox="0 0 511.763 511.763"><title>002-cut</title><path d="M504.542,369.513L359.788,255.885l144.751-113.648c5.328-3.802,7.706-9.128,7.139-15.986 c-0.955-6.658-4.292-11.514-10-14.56l-36.545-18.271c-2.475-1.333-5.232-1.999-8.278-1.999c-3.23,0-6.184,0.761-8.847,2.281 L251.01,204.196l-31.405-18.842c-1.524-0.76-2.666-1.234-3.427-1.427c2.667-9.323,3.617-18.558,2.856-27.693 c-1.332-14.656-6.661-28.743-15.987-42.255c-9.324-13.512-21.886-25.22-37.685-35.117c-25.125-15.99-51.485-23.982-79.084-23.982 c-26.075,0-47.204,7.521-63.382,22.557c-8.183,7.421-14.228,16.269-18.129,26.551c-3.903,10.279-5.375,21.035-4.425,32.261 c1.331,14.465,6.661,28.459,15.986,41.971c9.324,13.516,21.792,25.319,37.401,35.404c25.122,15.99,51.581,23.984,79.369,23.984 c15.798,0,30.168-2.948,43.11-8.85c1.709,2.474,3.806,4.57,6.28,6.283l34.833,20.841l-34.833,20.835 c-2.474,1.719-4.567,3.812-6.28,6.283c-12.942-5.899-27.312-8.85-43.11-8.85c-27.788,0-54.247,8.001-79.369,23.986 c-15.608,10.088-28.072,21.895-37.401,35.409c-9.325,13.514-14.655,27.5-15.986,41.969c-2.093,23.415,5.427,43.112,22.557,59.101 c16.368,14.846,37.495,22.269,63.382,22.269c27.6,0,53.959-7.998,79.084-23.986c15.795-10.089,28.361-21.833,37.685-35.262 c9.326-13.422,14.655-27.452,15.987-42.113c0.761-9.13-0.188-18.37-2.856-27.692c0.762-0.191,1.903-0.663,3.427-1.423 l31.405-18.85l196.999,110.488c2.662,1.526,5.615,2.285,8.85,2.285c3.046,0,5.801-0.663,8.274-1.998l36.549-18.274 c5.708-3.046,9.041-7.898,9.996-14.558C512.249,378.649,509.87,373.328,504.542,369.513z M165.362,181.649 c-7.423,6.854-18.177,10.282-32.264,10.282c-19.036,0-37.307-5.618-54.818-16.846c-15.416-9.707-25.504-20.843-30.262-33.406 c-4.759-12.559-2.762-22.841,5.996-30.835c7.426-6.849,18.18-10.278,32.264-10.278c19.036,0,37.307,5.619,54.818,16.846 c15.415,9.707,25.503,20.841,30.262,33.404C176.116,163.378,174.119,173.657,165.362,181.649z M171.357,360.95 c-4.759,12.56-14.847,23.695-30.262,33.407c-17.511,11.225-35.782,16.84-54.818,16.844c-14.084,0-24.838-3.429-32.264-10.28 c-8.757-7.994-10.754-18.274-5.996-30.841c4.758-12.559,14.847-23.688,30.262-33.4c17.511-11.225,35.782-16.844,54.818-16.844 c14.084,0,24.838,3.43,32.264,10.28C174.119,338.11,176.116,348.391,171.357,360.95z M191.914,219.338l2.565-2.562 c0.193-0.188,0.476-0.428,0.859-0.71c0.382-0.288,0.763-0.621,1.142-1c0.953-0.765,2.096-1.906,3.427-3.431 c1.333-1.521,2.286-2.568,2.856-3.14l7.422-7.422l22.557,13.418l-3.999,2.281c-6.28,3.805-9.419,9.135-9.419,15.986v3.14 L191.914,219.338z M255.867,283.291l-45.686,27.404l-7.423-7.422c-0.76-0.76-1.807-1.903-3.14-3.43 c-1.331-1.526-2.378-2.669-3.14-3.429c-0.95-0.763-1.615-1.335-1.997-1.711l-2.568-2.279l45.683-27.408v-32.264L456.861,109.7 l36.542,18.274l-210.135,164.45L255.867,283.291z M456.864,402.064L290.698,308.7c2.102-0.759,3.34-1.423,3.717-1.998 l50.538-39.396l148.46,116.483L456.864,402.064z"/><path d="M274.139,237.61c-4.948,0-9.229,1.811-12.847,5.428c-3.616,3.614-5.425,7.898-5.425,12.847 c0,4.946,1.809,9.231,5.425,12.845c3.617,3.621,7.898,5.428,12.847,5.428s9.229-1.807,12.85-5.428 c3.614-3.613,5.421-7.898,5.421-12.845c0-4.948-1.807-9.233-5.421-12.847C283.368,239.421,279.087,237.61,274.139,237.61z"/></symbol><symbol id="003-picture" viewBox="0 0 96 96"><title>003-picture</title><path style="fill:#030104;" d="M11.815,65.812c-7.569,7.44-1.176,15.079-11.235,26.403c-4.54,5.113,18.69,3.554,30.199-7.76 c4.882-4.798,3.505-11.793-1.731-16.941C23.812,62.366,16.696,61.014,11.815,65.812z M95.701,1.293 C91.815-2.524,48.806,31.94,36.002,44.528c-6.354,6.246-8.476,9.595-10.424,12.1c-0.847,1.087,0.272,1.424,0.776,1.681 c2.517,1.281,4.277,2.475,6.553,4.712c2.277,2.237,3.492,3.968,4.795,6.441c0.261,0.496,0.604,1.597,1.708,0.766 c2.55-1.915,5.955-4.001,12.309-10.248C64.524,47.392,99.583,5.111,95.701,1.293z"/></symbol><symbol id="004-photo-camera" viewBox="0 0 548.165 548.165"><title>004-photo-camera</title><path d="M526.76,131.045c-14.277-14.274-31.498-21.413-51.675-21.413h-63.953l-14.558-38.826 c-3.618-9.325-10.229-17.368-19.846-24.128c-9.613-6.757-19.462-10.138-29.551-10.138H200.996 c-10.088,0-19.939,3.381-29.552,10.138c-9.613,6.76-16.225,14.803-19.842,24.128l-14.56,38.826H73.089 c-20.179,0-37.401,7.139-51.678,21.413C7.137,145.32,0,162.544,0,182.721v255.813c0,20.178,7.137,37.404,21.411,51.675 c14.277,14.277,31.5,21.416,51.678,21.416h401.989c20.177,0,37.397-7.139,51.675-21.416 c14.273-14.271,21.412-31.497,21.412-51.675V182.721C548.169,162.544,541.03,145.32,526.76,131.045z M364.446,400.993 c-25.029,25.03-55.147,37.548-90.362,37.548s-65.331-12.518-90.362-37.548c-25.031-25.026-37.544-55.151-37.544-90.358 c0-35.218,12.517-65.333,37.544-90.364c25.028-25.031,55.148-37.544,90.362-37.544s65.333,12.516,90.362,37.544 c25.03,25.028,37.545,55.146,37.545,90.364C401.991,345.842,389.477,375.964,364.446,400.993z"/><path d="M274.084,228.403c-22.651,0-42.018,8.042-58.102,24.128c-16.084,16.084-24.126,35.448-24.126,58.104 c0,22.647,8.042,42.014,24.126,58.098c16.084,16.081,35.45,24.123,58.102,24.123c22.648,0,42.017-8.042,58.101-24.123 c16.084-16.084,24.127-35.45,24.127-58.098c0-22.655-8.043-42.019-24.127-58.104C316.102,236.446,296.732,228.403,274.084,228.403 z"/></symbol></svg>